<svg width="142" height="130" viewBox="0 0 142 130" fill="none" xmlns="http://www.w3.org/2000/svg">
<path d="M136.171 23.6665H25.1335L23.487 5.304C23.3569 3.85456 22.6882 2.50628 21.6126 1.52462C20.537 0.542966 19.1325 -0.000938457 17.6754 1.21553e-06H5.83108C4.28458 1.21553e-06 2.80142 0.613599 1.70788 1.70581C0.614344 2.79802 0 4.27938 0 5.824C0 7.36862 0.614344 8.84998 1.70788 9.94219C2.80142 11.0344 4.28458 11.648 5.83108 11.648H12.339L19.0486 86.2875C19.5237 91.6695 22.4327 97.5065 27.4503 101.472C18.4108 113.003 26.6694 130 41.3772 130C53.5795 130 62.183 117.845 57.9984 106.327H89.9196C85.7415 117.832 94.3255 130 106.547 130C111.235 129.995 115.73 128.133 119.045 124.822C122.36 121.511 124.224 117.022 124.229 112.34C124.224 107.657 122.36 103.168 119.045 99.8573C115.73 96.5465 111.235 94.6842 106.547 94.679H41.4163C36.9844 94.679 33.1252 92.014 31.4592 88.1205L124.659 82.6475C125.899 82.5752 127.083 82.1094 128.04 81.3178C128.996 80.5263 129.674 79.4505 129.976 78.247L141.827 30.9075C142.041 30.0483 142.057 29.1515 141.873 28.2853C141.688 27.4191 141.309 26.6062 140.763 25.9083C140.217 25.2104 139.52 24.6458 138.723 24.2573C137.926 23.8689 137.058 23.6669 136.171 23.6665ZM41.3707 118.352C39.8226 118.28 38.3617 117.615 37.2916 116.496C36.2215 115.376 35.6244 113.887 35.6244 112.34C35.6244 110.792 36.2215 109.303 37.2916 108.183C38.3617 107.064 39.8226 106.399 41.3707 106.327C42.9188 106.399 44.3797 107.064 45.4498 108.183C46.5199 109.303 47.117 110.792 47.117 112.34C47.117 113.887 46.5199 115.376 45.4498 116.496C44.3797 117.615 42.9188 118.28 41.3707 118.352ZM106.547 118.352C104.999 118.28 103.538 117.615 102.468 116.496C101.398 115.376 100.801 113.887 100.801 112.34C100.801 110.792 101.398 109.303 102.468 108.183C103.538 107.064 104.999 106.399 106.547 106.327C108.095 106.399 109.556 107.064 110.626 108.183C111.697 109.303 112.294 110.792 112.294 112.34C112.294 113.887 111.697 115.376 110.626 116.496C109.556 117.615 108.095 118.28 106.547 118.352ZM119.7 71.2725L29.8908 76.5375L26.1813 35.321H128.7L119.7 71.266V71.2725Z" fill="#0C0C0C"/>
</svg>
