<svg width="50" height="48" viewBox="0 0 50 48" fill="none" xmlns="http://www.w3.org/2000/svg">
<path d="M25 23.0137C21.7778 23.0137 19.0278 21.8762 16.75 19.6011C14.4722 17.3282 13.3333 14.6301 13.3333 11.5068C13.3333 8.32877 14.4722 5.61644 16.75 3.36986C19.0278 1.12329 21.7778 0 25 0C28.2222 0 30.9722 1.12329 33.25 3.36986C35.5278 5.61644 36.6667 8.32877 36.6667 11.5068C36.6667 14.6301 35.5278 17.3282 33.25 19.6011C30.9722 21.8762 28.2222 23.0137 25 23.0137ZM0 48V40.6849C0 39.0959 0.444445 37.6164 1.33333 36.2466C2.22222 34.8767 3.41667 33.8082 4.91667 33.0411C8.19444 31.4521 11.5144 30.2597 14.8767 29.4641C18.2367 28.6707 21.6111 28.274 25 28.274C28.3889 28.274 31.7644 28.6707 35.1267 29.4641C38.4867 30.2597 41.8056 31.4521 45.0833 33.0411C46.5833 33.8082 47.7778 34.8767 48.6667 36.2466C49.5556 37.6164 50 39.0959 50 40.6849V48H0ZM5 43.0685H45V40.6849C45 40.0274 44.8056 39.4247 44.4167 38.8767C44.0278 38.3288 43.5 37.863 42.8333 37.4795C39.9444 36.1096 37.0144 35.0542 34.0433 34.3134C31.07 33.5748 28.0556 33.2055 25 33.2055C21.9444 33.2055 18.93 33.5748 15.9567 34.3134C12.9856 35.0542 10.0556 36.1096 7.16667 37.4795C6.5 37.863 5.97222 38.3288 5.58333 38.8767C5.19444 39.4247 5 40.0274 5 40.6849V43.0685ZM25 18.0822C26.8333 18.0822 28.4033 17.4378 29.71 16.149C31.0144 14.8625 31.6667 13.3151 31.6667 11.5068C31.6667 9.69863 31.0144 8.15014 29.71 6.86137C28.4033 5.5748 26.8333 4.93151 25 4.93151C23.1667 4.93151 21.5978 5.5748 20.2933 6.86137C18.9867 8.15014 18.3333 9.69863 18.3333 11.5068C18.3333 13.3151 18.9867 14.8625 20.2933 16.149C21.5978 17.4378 23.1667 18.0822 25 18.0822Z" fill="#0C0C0C"/>
</svg>
